<svg xmlns="http://www.w3.org/2000/svg" height="1200" width="1600" version="1.1" xmlns:xlink="http://www.w3.org/1999/xlink" xmlns:svgjs="http://svgjs.com/svgjs"><rect fill="#e9f3f2" width="1600" height="1200"></rect><g><path d="M613.14 591.81C658.67 591.81 695.58 554.9 695.58 509.36 695.58 463.83 658.67 426.92 613.14 426.92 567.6 426.92 530.69 463.83 530.69 509.36 530.69 554.9 567.6 591.81 613.14 591.81Z" fill="#61c9ff" opacity="1" stroke-width="4" stroke="none"></path><path d="M635.62 531.85C656.73 510.74 663.73 483.5 651.23 471.01 649.36 469.14 647.11 467.64 644.74 466.64 642.62 465.77 640.37 465.27 638.12 465.02 636.24 464.77 634.37 465.77 633.62 467.39L623.63 486.75C622.5 489 623.38 491.62 625.5 492.75 625.63 492.87 625.75 492.87 625.88 492.87L631.37 495.12C633.62 496 634.62 498.49 633.75 500.62 633.62 500.87 633.5 501.12 633.37 501.24 626.25 512.61 616.63 522.23 605.27 529.47 603.27 530.72 600.64 530.1 599.39 528.1 599.27 527.85 599.14 527.6 599.02 527.47L596.77 521.85C595.9 519.61 593.27 518.48 591.02 519.36L590.65 519.48 571.29 529.47C569.66 530.22 568.66 531.97 568.91 533.85 569.16 536.22 569.66 538.47 570.54 540.72 571.54 543.21 573.04 545.34 574.91 547.21 587.28 559.95 614.51 552.96 635.62 531.85Z" fill="#ffffff" opacity="1" stroke-width="4" stroke="none"></path></g><g><path d="M253.09 126.9H432.85C439.59 126.9 446.26 128.22 452.48 130.8 458.7 133.37 464.36 137.15 469.12 141.92 473.88 146.68 477.66 152.33 480.23 158.55 482.81 164.78 484.13 171.45 484.13 178.18V357.94C484.13 364.67 482.81 371.34 480.23 377.57 477.66 383.79 473.88 389.44 469.12 394.2 464.36 398.97 458.7 402.75 452.48 405.32 446.26 407.9 439.59 409.22 432.85 409.22H253.09C246.36 409.22 239.69 407.9 233.47 405.32 227.24 402.75 221.59 398.97 216.83 394.2 212.06 389.44 208.29 383.79 205.71 377.57 203.13 371.34 201.81 364.67 201.81 357.94V178.18C201.81 171.45 203.13 164.78 205.71 158.55 208.29 152.33 212.06 146.68 216.83 141.92 221.59 137.15 227.24 133.37 233.47 130.8 239.69 128.22 246.36 126.9 253.09 126.9V126.9Z" fill="#76dddb" opacity="1" stroke-width="4" stroke="none"></path></g><g><path d="M1263.09 275.42H1442.85C1449.59 275.42 1456.26 276.74 1462.48 279.32 1468.7 281.89 1474.36 285.67 1479.12 290.43 1483.88 295.2 1487.66 300.85 1490.23 307.07 1492.81 313.3 1494.13 319.97 1494.13 326.7V506.46C1494.13 513.19 1492.81 519.86 1490.23 526.08 1487.66 532.31 1483.88 537.96 1479.12 542.72 1474.36 547.49 1468.7 551.26 1462.48 553.84 1456.26 556.42 1449.59 557.74 1442.85 557.74H1263.09C1256.36 557.74 1249.69 556.42 1243.47 553.84 1237.24 551.26 1231.59 547.49 1226.83 542.72 1222.06 537.96 1218.29 532.31 1215.71 526.08 1213.13 519.86 1211.81 513.19 1211.81 506.46V326.7C1211.81 319.97 1213.13 313.3 1215.71 307.07 1218.29 300.85 1222.06 295.2 1226.83 290.43 1231.59 285.67 1237.24 281.89 1243.47 279.32 1249.69 276.74 1256.36 275.42 1263.09 275.42V275.42Z" fill="#2c5b54" opacity="1" stroke-width="4" stroke="none"></path></g><g><path d="M1356.71 861.41C1402.47 861.41 1439.56 824.32 1439.56 778.56 1439.56 732.8 1402.47 695.71 1356.71 695.71 1310.95 695.71 1273.86 732.8 1273.86 778.56 1273.86 824.32 1310.95 861.41 1356.71 861.41Z" fill="#76dddb" opacity="1" stroke-width="4" stroke="none"></path><path d="M1356.71 837.75C1389.4 837.75 1415.9 811.25 1415.9 778.56 1415.9 745.87 1389.4 719.37 1356.71 719.37 1324.02 719.37 1297.52 745.87 1297.52 778.56 1297.52 811.25 1324.02 837.75 1356.71 837.75Z" fill="#ffffff" opacity="1" stroke-width="4" stroke="none"></path><path d="M1356.75 751.49V778.84H1394.65" stroke="#070707" stroke-width="4" stroke-linecap="round" stroke-linejoin="round" opacity="1" fill="none"></path><path d="M1356.71 785.14C1360.34 785.14 1363.29 782.19 1363.29 778.56 1363.29 774.93 1360.34 771.98 1356.71 771.98 1353.08 771.98 1350.13 774.93 1350.13 778.56 1350.13 782.19 1353.08 785.14 1356.71 785.14Z" fill="#76dddb" opacity="1" stroke-width="4" stroke="none"></path><path d="M1356.71 736.21C1358.88 736.21 1360.64 734.45 1360.64 732.28 1360.64 730.11 1358.88 728.35 1356.71 728.35 1354.54 728.35 1352.78 730.11 1352.78 732.28 1352.78 734.45 1354.54 736.21 1356.71 736.21Z" fill="#3ffffd" opacity="1" stroke-width="4" stroke="none"></path><path d="M1356.71 828.77C1358.88 828.77 1360.64 827.01 1360.64 824.84 1360.64 822.67 1358.88 820.91 1356.71 820.91 1354.54 820.91 1352.78 822.67 1352.78 824.84 1352.78 827.01 1354.54 828.77 1356.71 828.77Z" fill="#3ffffd" opacity="1" stroke-width="4" stroke="none"></path><path d="M1402.99 782.49C1405.16 782.49 1406.92 780.73 1406.92 778.56 1406.92 776.39 1405.16 774.63 1402.99 774.63 1400.82 774.63 1399.06 776.39 1399.06 778.56 1399.06 780.73 1400.82 782.49 1402.99 782.49Z" fill="#3ffffd" opacity="1" stroke-width="4" stroke="none"></path><path d="M1310.43 782.49C1312.6 782.49 1314.36 780.73 1314.36 778.56 1314.36 776.39 1312.6 774.63 1310.43 774.63 1308.26 774.63 1306.5 776.39 1306.5 778.56 1306.5 780.73 1308.26 782.49 1310.43 782.49Z" fill="#3ffffd" opacity="1" stroke-width="4" stroke="none"></path></g><g><path d="M943.16 303.39L902.29 395.31 982 327.52 1018.26 393.25 1014.09 309.78 1111.37 274.14 1011.74 270.7 1056.07 175.88 978.73 257.68 935.8 175.19 949.04 272.18 857.35 264.59 943.16 303.39Z" fill="#cecece" opacity="1" stroke-width="4" stroke="none"></path></g><g><path d="M116.97 794.34L118.05 867.02 149.77 798.38 193.49 830.49 165.42 777.01 218.41 724.13 152.03 752.1 152.33 676.46 126.43 753.57 73.25 712.51 111.36 772.09 48.92 794.94 116.97 794.34Z" fill="#cecece" opacity="1" stroke-width="4" stroke="none"></path></g><g><path d="M345.58 317.12V343.57" stroke="#000000" stroke-width="4" stroke-linecap="round" stroke-linejoin="round" opacity="1" fill="none"></path><path d="M371.44 312.33C339.09 325.68 302.01 310.21 288.66 277.85 275.32 245.5 290.79 208.42 323.15 195.07L371.44 312.33Z" stroke="#000000" stroke-width="4" stroke-linecap="round" stroke-linejoin="round" opacity="1" fill="none"></path><path d="M371.44 312.33C339.09 325.68 302.01 310.21 288.66 277.85 275.32 245.5 290.79 208.42 323.15 195.07L371.44 312.33Z" fill="#0f1112" opacity="0.3" stroke-width="4" stroke="none"></path><path d="M347.65 200.15C351.66 200.15 355.74 200.62 359.46 201.45 366.13 202.92 376.34 211.72 376.34 211.72 376.34 211.72 388.45 218.16 392.4 224.06 398.13 232.62 401.5 242.96 401.5 254 401.5 283.76 377.41 307.85 347.65 307.85 319.37 307.85 296.1 285.82 293.92 258.07 293.8 256.65 293.8 255.47 293.8 254 293.8 250.22 298.23 244.2 298.23 244.2 298.23 244.2 297.05 235.1 298.76 231.38 307.32 213.02 326.04 200.15 347.65 200.15Z" fill="#0a687f" opacity="1" stroke-width="4" stroke="none"></path><path d="M311.63 269.76C316.12 289.31 322.26 278.09 327.57 284.52 336.13 294.86 344.34 299.46 350.72 298.52 357.1 297.57 345.88 290.01 345.88 277.85 345.88 265.69 342.33 257.89 333.12 256.54 323.91 255.18 321.14 264.98 315.47 262.03 311.28 259.78 323.03 247.74 323.97 237.11 325.45 221.23 299.76 231.09 298.76 231.38 298.76 231.38 298.7 231.38 298.7 231.44 294.86 239.77 293.15 248.92 293.86 258.07 293.86 258.07 293.86 258.07 293.86 258.13 302.66 269.35 309.33 259.72 311.63 269.76Z" fill="#2c5b54" opacity="1" stroke-width="4" stroke="none"></path><path d="M359.46 201.45C357.98 202.04 356.74 202.81 355.5 203.69 343.69 211.84 339.21 229.79 345.88 232.8 352.49 235.81 360.82 224.53 366.48 222.59 376.28 219.28 374.81 228.14 369.32 230.85 363.83 233.57 354.67 233.63 352.84 240.95 350.95 248.51 358.57 250.45 367.01 251.52 375.46 252.58 376.28 280.92 382.96 278.44 389.63 275.96 396.36 258.37 390.99 237.11 389.16 229.91 390.34 226.19 392.34 224.12V224.06C384.67 212.61 372.92 204.52 359.46 201.45Z" fill="#2c5b54" opacity="1" stroke-width="4" stroke="none"></path><path d="M333.36 338.08H358.39C364.59 338.08 369.61 343.09 369.61 349.29V349.65H322.14V349.29C322.14 343.09 327.16 338.08 333.36 338.08Z" fill="#515759" opacity="1" stroke-width="4" stroke="none"></path></g><g><path d="M1321.6 342.78H1383.11C1390.73 342.78 1396.9 348.95 1396.9 356.56V475.37C1396.9 482.98 1390.73 489.15 1383.11 489.15H1321.6C1313.99 489.15 1307.82 482.98 1307.82 475.37V356.56C1307.82 348.95 1313.99 342.78 1321.6 342.78Z" fill="#61c9ff" opacity="1" stroke-width="4" stroke="none"></path><path d="M1324.45 366.43H1380.27C1383.74 366.43 1386.55 369.24 1386.55 372.72V400.44C1386.55 403.92 1383.74 406.72 1380.27 406.72H1324.45C1320.98 406.72 1318.17 403.92 1318.17 400.44V372.72C1318.17 369.24 1320.98 366.43 1324.45 366.43Z" fill="#e7f3f9" opacity="1" stroke-width="4" stroke="none"></path><path d="M1341.64 352.39H1363.08C1364.41 352.39 1365.48 353.46 1365.48 354.79 1365.48 356.12 1364.41 357.19 1363.08 357.19H1341.64C1340.31 357.19 1339.24 356.12 1339.24 354.79 1339.24 353.46 1340.31 352.39 1341.64 352.39Z" fill="#0a687f" opacity="1" stroke-width="4" stroke="none"></path><path d="M1324.45 417.07H1330.37C1333.84 417.07 1336.65 419.88 1336.65 423.36V427.42C1336.65 430.9 1333.84 433.71 1330.37 433.71H1324.45C1320.98 433.71 1318.17 430.9 1318.17 427.42V423.36C1318.17 419.88 1320.98 417.07 1324.45 417.07Z" fill="#0a687f" opacity="1" stroke-width="4" stroke="none"></path><path d="M1374.35 417.07H1380.27C1383.74 417.07 1386.55 419.88 1386.55 423.36V427.42C1386.55 430.9 1383.74 433.71 1380.27 433.71H1374.35C1370.88 433.71 1368.07 430.9 1368.07 427.42V423.36C1368.07 419.88 1370.88 417.07 1374.35 417.07Z" fill="#0a687f" opacity="1" stroke-width="4" stroke="none"></path><path d="M1349.4 417.07H1355.35C1358.83 417.07 1361.64 419.88 1361.64 423.36V427.42C1361.64 430.9 1358.83 433.71 1355.35 433.71H1349.4C1345.93 433.71 1343.12 430.9 1343.12 427.42V423.36C1343.12 419.88 1345.93 417.07 1349.4 417.07Z" fill="#0a687f" opacity="1" stroke-width="4" stroke="none"></path><path d="M1324.45 439.25H1330.37C1333.84 439.25 1336.65 442.06 1336.65 445.54V449.6C1336.65 453.08 1333.84 455.89 1330.37 455.89H1324.45C1320.98 455.89 1318.17 453.08 1318.17 449.6V445.54C1318.17 442.06 1320.98 439.25 1324.45 439.25Z" fill="#0a687f" opacity="1" stroke-width="4" stroke="none"></path><path d="M1374.35 439.25H1380.27C1383.74 439.25 1386.55 442.06 1386.55 445.54V449.6C1386.55 453.08 1383.74 455.89 1380.27 455.89H1374.35C1370.88 455.89 1368.07 453.08 1368.07 449.6V445.54C1368.07 442.06 1370.88 439.25 1374.35 439.25Z" fill="#0a687f" opacity="1" stroke-width="4" stroke="none"></path><path d="M1349.4 439.25H1355.35C1358.83 439.25 1361.64 442.06 1361.64 445.54V449.6C1361.64 453.08 1358.83 455.89 1355.35 455.89H1349.4C1345.93 455.89 1343.12 453.08 1343.12 449.6V445.54C1343.12 442.06 1345.93 439.25 1349.4 439.25Z" fill="#0a687f" opacity="1" stroke-width="4" stroke="none"></path><path d="M1324.45 461.43H1330.37C1333.84 461.43 1336.65 464.24 1336.65 467.71V471.78C1336.65 475.26 1333.84 478.06 1330.37 478.06H1324.45C1320.98 478.06 1318.17 475.26 1318.17 471.78V467.71C1318.17 464.24 1320.98 461.43 1324.45 461.43Z" fill="#0a687f" opacity="1" stroke-width="4" stroke="none"></path><path d="M1374.35 461.43H1380.27C1383.74 461.43 1386.55 464.24 1386.55 467.71V471.78C1386.55 475.26 1383.74 478.06 1380.27 478.06H1374.35C1370.88 478.06 1368.07 475.26 1368.07 471.78V467.71C1368.07 464.24 1370.88 461.43 1374.35 461.43Z" fill="#0a687f" opacity="1" stroke-width="4" stroke="none"></path><path d="M1349.4 461.43H1355.35C1358.83 461.43 1361.64 464.24 1361.64 467.71V471.78C1361.64 475.26 1358.83 478.06 1355.35 478.06H1349.4C1345.93 478.06 1343.12 475.26 1343.12 471.78V467.71C1343.12 464.24 1345.93 461.43 1349.4 461.43Z" fill="#0a687f" opacity="1" stroke-width="4" stroke="none"></path></g><g><path d="M518.55 318.77C544.97 312.27 570.04 285.69 573.16 264.09 575.65 246.65 557.14 256.13 550.2 281.97 543.85 305.59 545.97 341.09 597.03 339.76 597.03 339.76 578.26 357.46 588.69 375.11 599.12 392.76 632.99 382.28 631.66 370.88 630.67 362.43 599.53 373.35 593.74 400.18" stroke="#1f2321" stroke-width="4" stroke-linecap="round" stroke-linejoin="round" opacity="1" fill="none"></path><path d="M614.01 335.6L631.69 331.58" stroke="#1f2321" stroke-width="4" stroke-linecap="round" stroke-linejoin="round" opacity="1" fill="none"></path><path d="M610.52 344.3L622.2 345.55" stroke="#1f2321" stroke-width="4" stroke-linecap="round" stroke-linejoin="round" opacity="1" fill="none"></path></g><g><path d="M1398.29 680.24C1413.82 670.47 1427.01 643.15 1410.01 611.35 1410.01 611.35 1438.48 622.97 1451.5 599.67" stroke="#1f2321" stroke-width="4" stroke-linecap="round" stroke-linejoin="round" opacity="1" fill="none"></path><path d="M1451.94 611.56C1457.47 609.13 1462.34 603.61 1464.86 596.47" stroke="#1f2321" stroke-width="4" stroke-linecap="round" stroke-linejoin="round" opacity="1" fill="none"></path><path d="M1426.66 639.28C1426.45 634.38 1424.62 629.29 1423.39 627.05" stroke="#1f2321" stroke-width="4" stroke-linecap="round" stroke-linejoin="round" opacity="1" fill="none"></path><path d="M1422.15 669.75L1426.32 677.5" stroke="#1f2321" stroke-width="4" stroke-linecap="round" stroke-linejoin="round" opacity="1" fill="none"></path><path d="M1427.66 668.77L1437.04 675.49" stroke="#1f2321" stroke-width="4" stroke-linecap="round" stroke-linejoin="round" opacity="1" fill="none"></path></g><g><path d="M748.34 967.72C748.34 963.58 747.98 956.97 747.47 948.47L785.25 899.72 811.54 948.54C810.75 962.78 808.93 976.73 805.95 991.11L773.11 1001.07 748.34 967.72Z" fill="#c17c44" opacity="1" stroke-width="4" stroke="none"></path><path d="M880.86 625.84C882.89 628.31 884.85 630.64 886.38 632.45L925.68 603.11C912.75 582.69 895.31 565.69 886.89 558.79 883.04 555.67 878.17 552.32 870.61 550.44 866.55 549.42 859.28 547.75 852.6 547.75H804.65C804.58 547.75 793.9 548.84 785.04 551.96V551.89C781.62 553.05 778.93 554.72 776.9 556.54 765.42 566.78 752.13 586.11 733.75 619.16L772.98 650.04C779.59 640.59 783.87 632.53 784.45 631.51 784.6 634.2 784.31 637.03 784.09 639.65 783.36 647.42 782.64 654.76 792.01 659.12L792.08 659.41 881.8 659.26 882.02 659.04C889.14 651.42 887.03 645.53 884.27 637.98 882.96 634.42 881.58 630.49 880.86 625.84Z" fill="#2c5b54" opacity="1" stroke-width="4" stroke="none"></path><path d="M777.18 643.64C777.18 643.35 778.56 615.6 783.58 607.61 784.01 606.88 784.37 606.59 784.74 606.59 784.88 606.59 785.03 606.66 785.1 606.81 787.06 609.06 784.59 630.49 784.52 631.44 784.45 631.51 781.76 636.6 777.18 643.64Z" fill="#000000" opacity="0.2" stroke-width="4" stroke="none"></path><path d="M734.03 618.65C730.98 624.17 727.13 631 723.79 637.32 723.42 637.98 717.1 641.39 708.31 646.11 688.41 656.79 655.13 674.59 639.73 687.81 633.41 693.19 616.34 711.28 618.67 716 619.03 716.65 619.76 716.94 620.99 716.94 621.28 716.94 621.57 716.94 621.94 716.87 613.22 726.31 617.07 732.71 617.14 732.78 616.41 734.23 615.69 735.69 615.69 737.43 615.61 738.66 615.98 739.68 616.7 740.41 617.87 741.57 619.68 741.79 621.06 741.79 622.52 741.79 623.68 741.5 623.68 741.5 624.19 744.19 625.57 745.57 627.75 745.57 632.69 745.57 640.24 738.37 640.68 737.87 637.55 741.57 635.81 746 636.54 748.11 636.83 748.84 637.34 749.34 638.21 749.49 638.35 749.49 638.43 749.49 638.57 749.49 644.31 749.49 664.14 726.31 664.36 726.31 682.45 718.76 690.51 707.28 693.71 700.96H693.78C711.94 696.75 726.55 690.5 741.51 681.93 754.15 674.81 765.92 660.21 773.26 649.67L734.03 618.65Z" fill="#c17c44" opacity="1" stroke-width="4" stroke="none"></path><path d="M640.68 737.79C645.47 732.71 654.92 722.54 654.92 722.54" stroke="#000000" stroke-width="4" stroke-linecap="round" stroke-linejoin="round" opacity="1" fill="none"></path><path d="M623.69 741.35C628.04 736.99 648.39 716.65 648.39 716.65" stroke="#000000" stroke-width="4" stroke-linecap="round" stroke-linejoin="round" opacity="1" fill="none"></path><path d="M617.21 732.64C620.85 729 631.74 719.27 631.74 719.27" stroke="#000000" stroke-width="4" stroke-linecap="round" stroke-linejoin="round" opacity="1" fill="none"></path><path d="M895.74 967.43C894.65 963.65 892.26 956.82 888.55 948.03L917.32 894.71 952.33 947.82C953.79 961.69 954.08 976.73 953.21 991.04L914.19 997.65 895.74 967.43Z" fill="#c17c44" opacity="1" stroke-width="4" stroke="none"></path><path d="M927.56 869.43C907.95 836.08 905.7 810 902.35 754.21 899.08 698.56 882.38 673.65 882.16 673.43L823.17 672.7 792.29 673.14C763.74 717.6 744.2 783.71 741.66 845.09 741.15 859.11 743.47 890.57 745.51 918.39 746.38 929.36 747.11 939.75 747.69 948.54H775.95L786.19 907.35 796.29 948.54 811.76 948.62C813.14 922.83 810.89 898.92 808.2 871.25 805.44 843.49 814.16 818.21 824.26 789.01 826 783.92 827.82 778.77 829.56 773.46 832.61 794.89 836.97 817.12 843.51 837.47 851.28 861.73 865.96 895.58 877.73 922.83 881.79 932.27 885.64 941.13 888.77 948.54H915.21L917.46 907.35 938.17 948.54 952.55 948.47C948.48 911.42 936.72 885.05 927.56 869.43Z" fill="#cecece" opacity="1" stroke-width="4" stroke="none"></path><path d="M818.6 804.99C810.1 778.91 821.72 764.96 825.94 741.43L829.93 772.52C829.93 772.52 830.73 769.83 823.9 789.52 822.16 794.75 820.27 799.83 818.6 804.99Z" fill="#525252" opacity="0.2" stroke-width="4" stroke="none"></path><path d="M825.71 740.12C826.65 750.36 827.89 762.28 829.49 773.39" stroke="#525252" stroke-width="4" stroke-linecap="round" stroke-linejoin="round" opacity="1" fill="none"></path><path d="M715 1008.19C717.03 1004.26 719.65 1001.28 723.06 998.89 723.93 998.31 724.73 997.72 725.6 997.14 735.92 990.1 747.54 982.11 748.27 969.47 748.34 968.88 748.34 968.16 748.34 967.36H766.5C769.48 967.36 772.31 968.67 774.28 970.99 776.17 973.32 777.04 976.29 776.46 979.27L774.35 990.97H805.88C805.95 990.97 805.95 991.04 805.95 991.04 804.79 996.64 803.41 1002.37 801.81 1008.19L799.78 1010H715V1008.19Z" fill="#61c9ff" opacity="1" stroke-width="4" stroke="none"></path><path d="M866.39 1008.19C868.43 1004.26 871.04 1001.28 874.46 998.89L876.27 997.65C886.81 990.39 898.87 983.56 896.47 970.85 896.4 970.34 896.4 969.76 896.25 969.03L895.74 967.43 909.55 967.36C912.52 967.36 915.36 968.67 917.32 970.99 919.21 973.32 920.08 976.29 919.5 979.27L917.39 990.97 953.21 991.04C952.84 997.22 952.33 1002.74 951.68 1008.19L951.54 1008.33 867.12 1009.35 866.39 1008.19Z" fill="#61c9ff" opacity="1" stroke-width="4" stroke="none"></path><path d="M863.49 1019.16C863.49 1019.08 863.49 1012.76 866.83 1007.31L951.68 1008.19C951.24 1011.75 950.81 1015.38 950.16 1019.16H863.49Z" fill="#1c6890" opacity="1" stroke-width="4" stroke="none"></path><path d="M893.21 979.64L903.45 986.17" stroke="#1c6890" stroke-width="4" stroke-linecap="round" stroke-linejoin="round" opacity="1" fill="none"></path><path d="M888.91 986.17L895.38 994.17" stroke="#1c6890" stroke-width="4" stroke-linecap="round" stroke-linejoin="round" opacity="1" fill="none"></path><path d="M742.1 980.36L752.34 986.9" stroke="#1c6890" stroke-width="4" stroke-linecap="round" stroke-linejoin="round" opacity="1" fill="none"></path><path d="M737.81 986.17L744.27 994.17" stroke="#1c6890" stroke-width="4" stroke-linecap="round" stroke-linejoin="round" opacity="1" fill="none"></path><path d="M792 673.5V659.12H881.94V673.5H792Z" fill="#525252" opacity="1" stroke-width="4" stroke="none"></path><path d="M816.93 673.5V659.12H838.43V673.5H816.93Z" fill="#ffffff" opacity="1" stroke-width="4" stroke="none"></path><path d="M882.01 659.19C881.87 649.53 878.45 642.84 875.11 636.38 871.12 628.53 865.74 621.7 868.28 609.93 868.5 608.84 869.95 608.63 870.53 609.57L873.95 615.67C873.95 615.75 874.02 615.75 874.02 615.82 874.67 616.69 875.55 617.56 880.85 625.84 881.29 629.48 882.52 632.96 884.34 638.05 887.02 645.6 889.28 651.56 882.01 659.19Z" fill="#000000" opacity="0.2" stroke-width="4" stroke="none"></path><path d="M823.82 568.16C817.72 568.16 812.92 566.42 809.58 562.93 804.13 557.26 804.5 547.75 804.5 547.75L804.72 537.21C803.48 537.43 802.1 537.5 800.79 537.5 796 537.5 789.39 536.27 785.39 530.53 780.52 523.56 781.25 511.79 782.78 503.29 783.21 501.04 783.5 497.98 783.87 494.42 784.81 484.84 786.05 473.36 790.33 466.82 796.87 456.94 807.19 466.09 824.04 466.09 840.75 466.09 853.24 467.55 853.24 483.45 853.24 494.35 854.62 511.5 853.61 528.13 853.17 535.25 852.74 542.15 852.44 547.75 852.44 550.15 843.87 568.16 823.82 568.16Z" fill="#c17c44" opacity="1" stroke-width="4" stroke="none"></path><path d="M804.79 537.14C804.86 537.14 811.4 535.18 819.32 531.55 813.29 537.94 804.64 544.7 804.64 544.7L804.79 537.14Z" fill="#000000" opacity="0.2" stroke-width="4" stroke="none"></path><path d="M804.94 537.14C808.94 535.83 812.13 534.45 814.31 533.36" stroke="#000000" stroke-width="4" stroke-linecap="round" stroke-linejoin="round" opacity="1" fill="none"></path><path d="M835.81 508.59L830.07 511.21" stroke="#000000" stroke-width="4" stroke-linecap="round" stroke-linejoin="round" opacity="1" fill="none"></path><path d="M795.34 514.26C798.98 514.91 801.16 512.8 802.1 511.13" stroke="#000000" stroke-width="4" stroke-linecap="round" stroke-linejoin="round" opacity="1" fill="none"></path><path d="M806.31 501.54C807.4 501.54 808.28 500.67 808.28 499.58 808.28 498.5 807.4 497.62 806.31 497.62 805.23 497.62 804.35 498.5 804.35 499.58 804.35 500.67 805.23 501.54 806.31 501.54Z" fill="#231f20" opacity="1" stroke-width="4" stroke="none"></path><path d="M789.17 498.49C790.25 498.49 791.13 497.61 791.13 496.53 791.13 495.45 790.25 494.57 789.17 494.57 788.09 494.57 787.21 495.45 787.21 496.53 787.21 497.61 788.09 498.49 789.17 498.49Z" fill="#231f20" opacity="1" stroke-width="4" stroke="none"></path><path d="M795.34 501.54C794.47 503.8 793.75 505.54 796.07 506.41" stroke="#000000" stroke-width="4" stroke-linecap="round" stroke-linejoin="round" opacity="1" fill="none"></path><path d="M834.14 738.23C833.99 738.23 833.85 738.16 833.7 738.01 832.54 736.49 835.01 727.19 836.1 723.19 836.24 722.76 835.66 722.54 835.45 722.83 832.39 726.39 824.18 735.25 818.08 735.25 816.48 735.25 815.1 734.6 814.01 733.43 813.94 733.29 813.8 733.29 813.65 733.29 813.22 733.43 812.13 733.65 810.89 733.65 808.42 733.65 805.44 732.71 805.44 728.2 805.44 728.2 804.5 727.77 803.92 726.46 803.34 725.01 803.12 722.25 805.44 717.23 808.28 711.06 818.88 696.24 828.18 691.15 836.9 686.43 851.72 683.89 853.24 683.6 853.32 683.6 853.39 683.53 853.46 683.45L892.62 640.08C892.76 639.94 892.76 639.72 892.62 639.57 891.82 638.7 889.06 635.65 886.44 632.6 886.3 632.45 886.3 632.16 886.52 632.02L925.24 603.18C925.46 603.03 925.67 603.11 925.82 603.25 935.19 618.07 940.2 631.29 940.78 642.33 942.45 673.35 876.56 706.48 873.59 707.86 873.51 707.86 873.44 707.93 873.44 708.01 872.79 709.02 867.26 717.89 850.27 718.03 850.12 718.03 849.97 718.11 849.9 718.25 848.96 720.65 840.46 738.23 834.14 738.23Z" fill="#c17c44" opacity="1" stroke-width="4" stroke="none"></path><path d="M813.87 733.22C824.18 718.9 830 713.82 835.08 709.46" stroke="#000000" stroke-width="4" stroke-linecap="round" stroke-linejoin="round" opacity="1" fill="none"></path><path d="M805.44 728.2C809 723.26 819.17 709.46 828.47 703.07" stroke="#000000" stroke-width="4" stroke-linecap="round" stroke-linejoin="round" opacity="1" fill="none"></path><path d="M880.86 625.84C877.88 622.07 876.06 619.31 873.96 615.82" stroke="#000000" stroke-width="4" stroke-linecap="round" stroke-linejoin="round" opacity="1" fill="none"></path><path d="M784.52 631.44C784.37 626.57 785.83 604.05 785.83 604.05" stroke="#000000" stroke-width="4" stroke-linecap="round" stroke-linejoin="round" opacity="1" fill="none"></path><path d="M850.12 533.65C848.38 533.44 839.37 533 833.41 525.88 832.83 525.23 833.05 524.14 833.85 523.77 838.13 521.45 850.19 513.97 847.5 504.38 846.2 499.8 842.64 497.48 837.04 497.48 832.76 497.48 828.25 498.86 826.15 499.66 825.42 499.95 824.55 499.51 824.33 498.78 823.17 495.22 823.31 491.59 823.6 489.48 823.75 488.54 822.95 487.81 822.08 487.89 821.57 487.96 820.99 487.96 820.33 487.96 818.01 487.96 814.89 487.45 813.22 484.98 811.76 482.8 811.69 479.39 813.07 474.96 813.43 473.87 812.42 472.85 811.33 473.14 806.31 474.45 801.45 475.17 796.87 475.17 792.95 475.17 790.19 474.66 788.59 474.3 787.79 474.08 787.28 473.28 787.57 472.49 788.3 470.23 789.24 468.2 790.26 466.6 796.87 456.72 807.4 452.36 824.18 452.36 841.4 452.36 856 465.73 856 481.71 856 490.65 855.13 505.25 854.26 519.05 853.97 524.14 853.68 529.15 853.46 533.94 853.46 533.94 852.52 533.94 850.12 533.65Z" fill="#231f20" opacity="1" stroke-width="4" stroke="none"></path><path d="M712.02 1019.16C712.02 1019.08 712.09 1013.93 714.92 1008.33 715 1008.26 715.07 1008.19 715.14 1008.19H801.81C801.01 1011.38 800.07 1014.51 799.12 1017.78L798.69 1019.23 712.02 1019.16Z" fill="#1c6890" opacity="1" stroke-width="4" stroke="none"></path><path d="M696.4 700.31C692.77 699.94 692.26 703.58 692.26 703.58Z" fill="#c17c44" opacity="1" stroke-width="4" stroke="none"></path><path d="M835.45 722.83C838.72 718.47 838.94 718.03 842.06 714.04" stroke="#000000" stroke-width="4" stroke-linecap="round" stroke-linejoin="round" opacity="1" fill="none"></path><path d="M621.94 716.87C631.6 715.34 639.73 708.01 639.73 708.01" stroke="#000000" stroke-width="4" stroke-linecap="round" stroke-linejoin="round" opacity="1" fill="none"></path><path d="M639.73 708.01C652.74 709.61 665.81 700.45 665.81 700.45" stroke="#000000" stroke-width="4" stroke-linecap="round" stroke-linejoin="round" opacity="1" fill="none"></path></g><g><path d="M624.42 737.55H804.17C810.91 737.55 817.58 738.88 823.8 741.45 830.02 744.03 835.68 747.81 840.44 752.57 845.21 757.33 848.98 762.99 851.55 769.21 854.13 775.43 855.46 782.1 855.46 788.84V968.59C855.46 975.33 854.13 982 851.55 988.22 848.98 994.44 845.21 1000.1 840.44 1004.86 835.68 1009.62 830.02 1013.4 823.8 1015.97 817.58 1018.55 810.91 1019.87 804.17 1019.87H624.42C617.68 1019.87 611.01 1018.55 604.79 1015.97 598.57 1013.4 592.91 1009.62 588.15 1004.86 583.39 1000.1 579.61 994.44 577.03 988.22 574.46 982 573.13 975.33 573.14 968.59V788.84C573.13 782.1 574.46 775.43 577.03 769.21 579.61 762.99 583.39 757.33 588.15 752.57 592.91 747.81 598.57 744.03 604.79 741.45 611.01 738.88 617.68 737.55 624.42 737.55V737.55Z" fill="#0a687f" opacity="1" stroke-width="4" stroke="none"></path></g><g><path d="M714.24 973.06C765.9 973.06 807.78 931.18 807.78 879.52 807.78 827.86 765.9 785.97 714.24 785.97 662.57 785.97 620.69 827.86 620.69 879.52 620.69 931.18 662.57 973.06 714.24 973.06Z" fill="#2c5b54" opacity="1" stroke-width="4" stroke="none"></path><path d="M714.24 941.88C748.68 941.88 776.6 913.96 776.6 879.52 776.6 845.08 748.68 817.16 714.24 817.16 679.79 817.16 651.87 845.08 651.87 879.52 651.87 913.96 679.79 941.88 714.24 941.88Z" stroke="#ffffff" stroke-width="4" opacity="1" fill="none"></path><path d="M701.08 902.87V854.57H719.03C727.09 854.57 733.55 860.13 733.55 867.05 733.55 873.89 727.09 879.52 719.03 879.52H701.08" stroke="#ffffff" stroke-width="4" stroke-linecap="round" stroke-linejoin="round" opacity="1" fill="none"></path><path d="M701.08 904.47V879.52H719.03C727.09 879.52 733.55 885.07 733.55 891.99 733.55 898.84 727.09 904.47 719.03 904.47H701.08" stroke="#ffffff" stroke-width="4" stroke-linecap="round" stroke-linejoin="round" opacity="1" fill="none"></path><path d="M714.69 853.89V847.81" stroke="#ffffff" stroke-width="4" stroke-linecap="round" stroke-linejoin="round" opacity="1" fill="none"></path><path d="M714.69 911.16V905.15" stroke="#ffffff" stroke-width="4" stroke-linecap="round" stroke-linejoin="round" opacity="1" fill="none"></path></g><g><path d="M344.51 1018.68C342.99 1012.06 339.89 997.29 338.01 985.14 338.01 985.08 338.01 985.08 338.07 985.08 342.45 985.26 357.64 983.62 368.76 992.74V992.8L366.51 1018.56C366.51 1018.62 366.51 1018.62 366.45 1018.62L344.51 1018.68Z" fill="#61c9ff" opacity="1" stroke-width="4" stroke="none"></path><path d="M379.75 1007.87C367.42 989.88 349.37 985.45 338.07 985.08 338.07 985.08 338.01 985.08 338.01 985.02 337.1 979.31 336.37 973.6 335.7 968.13 335.03 962.42 334.49 956.83 334.06 951.42 334.06 951.42 334.06 951.36 334.12 951.36L369.67 935.92H369.73L397.01 951.36C397.01 951.36 397.01 951.36 397.07 951.42 397.07 952.21 397.13 952.94 397.13 953.67 397.56 968.25 398.77 976.76 406.92 984.41 415.48 992.13 427.27 999.06 432.44 1006.83 432.62 1007.2 432.86 1007.5 433.04 1007.87V1007.93C432.86 1008.29 432.74 1008.6 432.68 1008.66H432.62C431.1 1008.66 381.94 1008.66 380.97 1008.66 380.97 1008.66 380.97 1008.66 380.91 1008.66L379.75 1007.87Z" fill="#76dddb" opacity="1" stroke-width="4" stroke="none"></path><path d="M335.7 968.13C335.03 962.29 334.49 956.64 334.06 951.3H397.01C397.01 952.09 397.07 952.82 397.07 953.67L335.7 968.13Z" fill="#000000" opacity="0.2" stroke-width="4" stroke="none"></path><path d="M232.34 1018.68C231.06 1013.15 227.78 993.53 226.93 985.26 226.93 985.2 226.93 985.2 226.99 985.2 232.28 985.57 245.59 985.99 255.61 994.2V994.26L253.49 1018.56C253.49 1018.62 253.49 1018.62 253.43 1018.62L232.34 1018.68Z" fill="#61c9ff" opacity="1" stroke-width="4" stroke="none"></path><path d="M266.74 1007.87C254.53 990.67 239.21 986.11 227 985.2 227 985.2 226.94 985.2 226.94 985.14 226.33 980.1 225.78 975.06 225.3 970.13 224.69 963.69 224.27 957.43 223.96 951.42 223.96 951.36 223.96 951.36 224.02 951.36H287.64C287.7 951.36 287.7 951.42 287.7 951.42 287.58 952.88 287.46 954.21 287.34 955.55 286.37 969.59 287.16 977.73 296.09 985.99 300.89 990.06 304.96 993.16 308.24 995.65 313.89 999.91 317.6 1002.76 320.21 1006.83 320.39 1007.2 320.64 1007.5 320.82 1007.87 320.82 1008.35 320.82 1008.48 320.82 1008.41 319.79 1008.41 269.35 1009.08 268.14 1009.08 268.14 1009.08 268.14 1009.08 268.08 1009.08L266.74 1007.87Z" fill="#76dddb" opacity="1" stroke-width="4" stroke="none"></path><path d="M476.07 596.5L432.92 571.04C432.86 571.04 432.8 571.04 432.8 571.1 430.13 576.32 426.97 582.58 424.05 588.41 419.92 596.74 416.15 604.33 414.69 607.31 414.69 607.37 414.57 607.37 414.57 607.31 413.3 605.79 398.9 588.47 387.9 575.84 378.54 565.57 367.97 558.21 356.54 553.96 346.7 550.44 340.93 550.25 337.22 550.25 337.16 550.25 337.1 550.19 337.1 550.13L337.04 542.17C337.04 542.11 336.98 542.05 336.92 542.05H289.09C289.03 542.05 288.97 542.11 288.97 542.17 289.16 544.42 289.34 548.67 289.34 549.22 289.34 549.28 289.34 549.28 289.28 549.28L289.09 549.4C288.61 549.4 288.12 549.4 287.58 549.4 260.66 550.19 246.86 565.26 229.73 603.91 214.9 640.55 210.22 658.96 226.99 684.72 230.4 689.89 237.57 696.39 244.74 702.16 233.92 745.12 246.13 785.71 242.31 830.62 240.54 844.53 236.23 858.21 232.58 871.33 229.79 881.36 235.62 901.71 235.62 901.71L237.2 944.19C237.2 944.19 388.08 942.61 388.44 936.41 389.11 925.53 395.07 901.59 395.07 901.59 395.07 901.59 401.26 886.04 401.57 877.83 404.12 798.96 380 717.29 348.95 659.87 349.86 656.29 357.33 626.33 358.06 623.41 358.06 623.35 358.18 623.29 358.24 623.41 359.22 624.87 366.75 634.05 376.72 643.47 389.05 655.13 405.28 667.29 417.73 665.95 435.29 665.1 448.9 654.1 459.9 639.21 464.76 624.08 475.46 598.14 476.13 596.56 476.13 596.56 476.07 596.5 476.07 596.5Z" fill="#61c9ff" opacity="1" stroke-width="4" stroke="none"></path><path d="M225.3 970.13C224.69 963.69 224.27 957.62 223.96 951.6L288.01 948.2C287.89 949.6 287.4 954.15 287.34 955.55L225.3 970.13Z" fill="#000000" opacity="0.2" stroke-width="4" stroke="none"></path><path d="M414.63 607.37C415.36 605.91 416.64 603.24 418.34 599.9 418.4 599.78 418.58 599.78 418.58 599.9L422.35 616.55C422.41 616.67 422.23 616.79 422.11 616.67L414.63 607.49C414.57 607.43 414.57 607.43 414.63 607.37Z" fill="#62c8fd" opacity="0.2" stroke-width="4" stroke="none"></path><path d="M434.33 581.18C434.33 581.18 431.59 573.34 432.81 570.91 434.75 566.9 436.76 562.77 438.88 558.76 438.82 550.44 440.83 541.93 444.84 533.36 446.84 529.17 447.82 523.76 448.55 519.45 449.4 514.71 450.06 511 451.71 510.94 455.78 510.76 457.36 519.08 458.88 528.68 459 529.65 460.21 530.02 460.88 529.35 469.51 520.84 483.06 495.99 493.15 502.55 493.33 502.68 493.57 502.68 493.75 502.61 497.89 501.1 501.35 503.16 500.92 507.84 500.92 508.08 501.05 508.39 501.29 508.51 507.72 512.09 494 532.02 493.09 534.33 492.96 534.58 493.27 534.82 493.51 534.7 499.65 530.57 504.93 521.88 508.15 525.28 509.85 527.53 504.21 537.01 493.15 550.92 492.9 551.23 492.72 551.59 492.54 551.96 487.5 565.93 482.69 575.05 476.5 577.35 476.13 577.48 475.83 577.78 475.71 578.21 474.25 583.43 471.27 592.85 470.72 595.89 470.85 595.89 434.33 581.18 434.33 581.18Z" fill="#caa281" opacity="1" stroke-width="4" stroke="none"></path><path d="M288.98 542.11C287.95 524.92 285.76 493.93 285.52 483.72 285.27 475.76 288.19 468.1 293.78 462.15 300.89 454.13 315.11 454.73 325.86 454.85 341.36 455.1 356.43 471.5 357.34 474.3 360.26 483.23 359.95 493.8 361.29 502.49 362.87 512.03 364.2 518.9 359.89 526.01 355.64 533.6 345.49 537.31 336.92 534.76L336.98 542.11H288.98Z" fill="#caa281" opacity="1" stroke-width="4" stroke="none"></path><path d="M330.35 481.83C313.04 481.83 286.91 474.12 286.66 473.99 290.43 461.3 302.16 452.3 315.77 451.63 326.28 451.15 336.55 453.09 344.39 457.83 350.53 461.54 355.21 467.01 357.33 474.3 357.27 474.36 352.9 479.83 334.91 481.59 333.57 481.77 332.05 481.83 330.35 481.83 330.41 481.83 330.41 481.83 330.35 481.83Z" fill="#76dddb" opacity="1" stroke-width="4" stroke="none"></path><path d="M334.8 498.54C335.93 498.54 336.86 497.62 336.86 496.48 336.86 495.34 335.93 494.41 334.8 494.41 333.65 494.41 332.73 495.34 332.73 496.48 332.73 497.62 333.65 498.54 334.8 498.54Z" fill="#231f20" opacity="1" stroke-width="4" stroke="none"></path><path d="M352.23 495.93C353.37 495.93 354.29 495.01 354.29 493.86 354.29 492.72 353.37 491.8 352.23 491.8 351.09 491.8 350.16 492.72 350.16 493.86 350.16 495.01 351.09 495.93 352.23 495.93Z" fill="#231f20" opacity="1" stroke-width="4" stroke="none"></path><path d="M323.37 772.35C321.54 772.35 319.6 771.5 318.2 770.04 309.69 772.22 307.87 762.56 306.72 754.12 306.53 753.02 306.35 751.93 306.23 750.9 306.17 750.71 305.93 750.71 305.87 750.9 304.1 759.28 300.94 766.21 297.12 763.72 295.47 762.62 294.14 751.5 296.57 736.86 296.63 736.56 296.51 736.19 296.33 735.95 287.64 724.95 285.14 715.53 284.72 713.59 284.66 713.34 284.54 713.16 284.29 713.04 279.25 710.12 275 707.45 271.17 704.9L290.61 677.86C290.61 677.86 299.12 679.32 302.58 683.14 311.46 692.99 323.61 707.75 328.59 719.12 334.24 734.13 340.8 766.7 328.53 768.09 327.32 771.8 324.76 772.35 323.37 772.35Z" fill="#caa281" opacity="1" stroke-width="4" stroke="none"></path><path d="M278.1 656.77L281.86 618.31C281.86 618.01 281.5 617.94 281.38 618.19L268.13 646.26C268.31 646.38 272.57 650.88 278.1 656.77Z" fill="#61c9ff" opacity="0.2" stroke-width="4" stroke="none"></path><path d="M285.57 599.53C285.02 599.53 284.48 599.53 283.93 599.53 273.72 599.23 259.87 596.43 251.97 585.13 247.23 578.39 246.86 571.64 246.86 571.58 260.78 551.59 279.92 549.46 287.51 549.46 288.06 549.46 288.55 549.46 289.03 549.46L289.34 549.22C289.34 549.16 289.16 544.42 288.97 542.05H336.98L337.04 550.19C337.4 550.19 337.77 550.19 338.19 550.19 339.95 550.19 341.72 550.31 343.42 550.56 343.11 555.24 337.65 567.51 328.23 578.27 319.78 587.99 305.56 599.53 285.57 599.53Z" fill="#61c9ff" opacity="0.2" stroke-width="4" stroke="none"></path><path d="M284.84 591.69C271.96 591.94 255.98 587.68 248.2 579.42 241.82 573.1 239.09 564.9 240.18 555.78 241.33 546.73 246.38 540.65 251.36 536.82 256.53 532.81 261.63 531.17 262.42 530.93 262.48 530.93 262.48 530.87 262.48 530.81 257.92 518.9 262.36 511.67 268.43 501.7 271.96 495.93 275.91 489.37 279.01 480.5 285.69 461.42 297.36 451.39 316.07 451.39 328.35 451.39 337.22 453.58 344.21 457.83 344.27 457.83 344.27 457.95 344.21 457.95 342.45 458.44 323.85 464.03 320.39 483.53 318.57 493.93 315.77 509.6 320.39 519.39 326.4 532.15 336.19 535 343.6 535 347.61 535 350.65 533.97 350.71 533.97 350.77 534.03 358.61 541.99 352.59 552.81L345.85 551.1C345.54 551.04 345.24 551.17 345.12 551.47 338.37 568.36 315.47 592.67 284.84 591.69Z" fill="#cecece" opacity="1" stroke-width="4" stroke="none"></path><path d="M251.54 536.7C254.82 534.21 258.53 532.21 262.48 530.93 262.6 530.87 262.66 530.93 262.72 531.05 263.15 532.33 265.82 540.05 273.48 541.81 273.6 541.87 273.6 542.05 273.48 542.05 270.01 541.99 259.75 541.38 251.6 536.89 251.48 536.89 251.48 536.7 251.54 536.7Z" fill="#4b4b4b" opacity="0.2" stroke-width="4" stroke="none"></path><path d="M223.96 951.6C223.17 934.95 223.41 918.79 225.97 902.44 227.61 891.99 229.67 881.48 232.59 871.33 236.78 869.57 240.98 868.66 244.56 868.66 266.01 869.63 265.52 891.26 256.17 917.15 256.05 917.57 256.53 917.88 256.83 917.51 264.43 908.4 293.17 878.74 298.34 911.5 298.4 911.86 298.88 911.92 299.07 911.62 318.81 876.92 355.09 867.2 351.02 923.16 350.96 923.59 351.57 923.77 351.75 923.34 354.91 915.75 364.81 896.97 377.03 908.46 377.21 908.64 377.57 908.58 377.63 908.28 378.85 904.27 386.44 881.72 401.57 877.77 401.33 885.43 400.6 893.45 400 902.26 399.27 913.68 398.29 925.05 397.63 935.92 397.26 942.12 397.08 947.16 397.08 951.54 396.77 951.78 224.27 951.48 223.96 951.6Z" fill="#2c5b54" opacity="1" stroke-width="4" stroke="none"></path><path d="M305.57 877.95C304.11 877.95 302.77 877.59 301.56 876.92 297.06 874.31 295.97 867.75 299.19 862.22 301.44 858.39 305.32 855.9 309.09 855.9 310.55 855.9 311.89 856.26 313.1 856.93 317.6 859.54 318.69 866.11 315.47 871.63 313.28 875.46 309.4 877.95 305.57 877.95Z" fill="#2c5b54" opacity="1" stroke-width="4" stroke="none"></path><path d="M265.71 728.35C247.23 711.04 234.6 696.82 227 684.72 227 684.72 227 684.72 227 684.66 228.46 678.77 234.17 674.7 240.91 674.7 243.59 674.7 246.26 675.37 248.63 676.64 255.56 680.29 261.39 690.01 263.82 694.45 264.25 695.24 265.46 695.12 265.71 694.26 267.71 688.07 274.58 672.09 291.47 670.93 296.64 676.4 300.4 680.9 302.59 683.14L265.71 728.35Z" fill="#2c5b54" opacity="1" stroke-width="4" stroke="none"></path><path d="M459.78 639.21C444.95 628.21 449.03 606.64 450.54 600.57 450.73 599.84 450.12 599.11 449.33 599.23 448.11 599.41 446.9 599.47 445.74 599.47 435.66 599.47 427.21 593.88 423.93 588.41 427.27 581.67 430.37 575.59 432.74 570.91L482.02 594.67C482.69 594.98 482.99 595.83 482.75 596.5 475.7 613.45 460.63 637.88 459.84 639.15 459.84 639.21 459.84 639.21 459.78 639.21Z" fill="#2c5b54" opacity="1" stroke-width="4" stroke="none"></path><path d="M386.57 1018.62C384.62 1014.92 382.37 1011.33 379.82 1007.93 379.82 1007.87 379.82 1007.81 379.88 1007.81H432.93 432.99C434.69 1010.54 435.66 1015.46 435.54 1018.56 435.54 1018.62 435.54 1018.62 435.48 1018.62 433.42 1018.68 388.02 1018.68 386.57 1018.62 386.57 1018.68 386.57 1018.68 386.57 1018.62Z" fill="#61c9ff" opacity="1" stroke-width="4" stroke="none"></path><path d="M273.55 1018.62C271.54 1014.92 269.35 1011.27 266.8 1007.93 266.8 1007.87 266.8 1007.81 266.86 1007.81H320.76C320.76 1007.81 320.82 1007.81 320.82 1007.87 322.52 1010.97 323.37 1014.31 323.37 1018.56 323.37 1018.62 323.37 1018.62 323.31 1018.62H273.55C273.55 1018.68 273.55 1018.68 273.55 1018.62Z" fill="#61c9ff" opacity="1" stroke-width="4" stroke="none"></path><path d="M358.06 623.23L362.07 606.7C362.13 606.34 362.62 606.34 362.74 606.64L375.99 641.7C376.17 642.13 375.62 642.43 375.32 642.13 371.37 638.24 359.88 626.57 358.06 623.23Z" fill="#62c8fd" opacity="0.2" stroke-width="4" stroke="none"></path><path d="M462.82 559.37C465.61 547.64 462.15 542.48 460.39 537.19 459.72 535.18 458.93 528.93 458.93 528.93" stroke="#3b3631" stroke-width="4" stroke-linecap="round" stroke-linejoin="round" opacity="1" fill="none"></path><path d="M474.06 527.22C474.06 527.22 483.48 513.37 493.44 502.8" stroke="#3b3631" stroke-width="4" stroke-linecap="round" stroke-linejoin="round" opacity="1" fill="none"></path><path d="M482.21 532.81C482.21 532.81 496.55 512.88 500.92 508.51" stroke="#3b3631" stroke-width="4" stroke-linecap="round" stroke-linejoin="round" opacity="1" fill="none"></path><path d="M489.68 539.01L492.84 535.18" stroke="#3b3631" stroke-width="4" stroke-linecap="round" stroke-linejoin="round" opacity="1" fill="none"></path><path d="M414.58 607.43L406.44 597.71" stroke="#ffffff" stroke-width="4" stroke-linecap="round" stroke-linejoin="round" opacity="1" fill="none"></path><path d="M348.89 659.87L283.21 660.18" stroke="#ffffff" stroke-width="4" stroke-linecap="round" stroke-linejoin="round" opacity="1" fill="none"></path><path d="M345 504.5L345.18 504.32C345.97 503.65 346.21 502.55 345.91 501.58L345.42 499.82" stroke="#3b3631" stroke-width="4" stroke-linecap="round" stroke-linejoin="round" opacity="1" fill="none"></path><path d="M340.2 510.51C342.33 513.13 345.98 513.01 347.13 512.22" stroke="#3b3631" stroke-width="4" stroke-linecap="round" stroke-linejoin="round" opacity="1" fill="none"></path><path d="M282.05 616.85L268.13 646.32" stroke="#ffffff" stroke-width="4" stroke-linecap="round" stroke-linejoin="round" opacity="1" fill="none"></path><path d="M291.47 670.99L268.2 646.26" stroke="#ffffff" stroke-width="4" stroke-linecap="round" stroke-linejoin="round" opacity="1" fill="none"></path><path d="M287.46 970.07L274.4 974.39" stroke="#000000" stroke-width="4" stroke-linecap="round" stroke-linejoin="round" opacity="1" fill="none"></path><path d="M290.01 978.76L278.46 986.6" stroke="#000000" stroke-width="4" stroke-linecap="round" stroke-linejoin="round" opacity="1" fill="none"></path><path d="M398.66 970.07L385.59 974.39" stroke="#000000" stroke-width="4" stroke-linecap="round" stroke-linejoin="round" opacity="1" fill="none"></path><path d="M401.39 978.64L389.66 986.6" stroke="#000000" stroke-width="4" stroke-linecap="round" stroke-linejoin="round" opacity="1" fill="none"></path><path d="M358.13 623.29L360.56 613.39" stroke="#ffffff" stroke-width="4" stroke-linecap="round" stroke-linejoin="round" opacity="1" fill="none"></path><path d="M328.53 768.15C329.14 758.43 327.68 743.54 325.25 733.82" stroke="#3b3631" stroke-width="4" stroke-linecap="round" stroke-linejoin="round" opacity="1" fill="none"></path><path d="M318.2 770.04C318.81 756.67 316.13 737.47 316.13 737.47" stroke="#3b3631" stroke-width="4" stroke-linecap="round" stroke-linejoin="round" opacity="1" fill="none"></path><path d="M305.8 740.51L306.05 750.84" stroke="#3b3631" stroke-width="4" stroke-linecap="round" stroke-linejoin="round" opacity="1" fill="none"></path><path d="M262.55 530.75C264.73 537.43 268.68 540.17 273.42 542.05" stroke="#4b4b4b" stroke-width="4" stroke-linecap="round" stroke-linejoin="round" opacity="1" fill="none"></path><path d="M350.77 533.91C342.26 536.34 334.36 533.6 331.33 531.6" stroke="#4b4b4b" stroke-width="4" stroke-linecap="round" stroke-linejoin="round" opacity="1" fill="none"></path></g><g><path d="M1103.59 425.15C1072.28 399.13 1038.43 437.65 1068.23 465.32 1099.54 491.35 1133.4 452.89 1103.59 425.15Z" fill="#231f20" opacity="1" stroke-width="4" stroke="none"></path><path d="M1154.48 795.07C1154.62 794.93 1209.96 740.55 1201.04 835.17 1196.44 883.93 1179.82 965.85 1193.96 981.44 1196.16 983.91 1198.7 985.97 1201.17 987.75 1213.46 996.68 1220.54 997.44 1221.71 1015.56 1221.71 1015.63 1221.71 1015.63 1221.64 1015.63L1145.89 1011.65C1145.62 1011.51 1134.43 1006.36 1131.54 984.11 1130.03 972.3 1128.66 957.13 1128.32 939.55 1127.97 922.86 1128.32 909.47 1129.07 898.21 1131.34 865.39 1137.04 851.17 1138.62 829.68 1140.26 806.26 1154.41 795.14 1154.48 795.07Z" fill="#551e02" opacity="1" stroke-width="4" stroke="none"></path><path d="M1133.74 832.43C1126.39 880.84 1105.66 965.85 1119.8 981.44 1122 983.84 1124.47 985.9 1126.94 987.69 1139.23 996.61 1138.27 997.37 1139.44 1015.56 1139.44 1015.63 1139.44 1015.63 1139.37 1015.63L1071.32 1013.71C1071.32 1013.71 1071.25 1013.71 1071.25 1013.64 1068.23 1002.24 1058.82 995.45 1057.11 983.77 1053.19 956.72 1052.64 928.63 1056.35 900.2 1057.52 891.41 1059.03 882.48 1060.95 873.56 1063.56 861.54 1087.25 848.97 1091.37 836.75 1102.36 783.53 1148.16 736.98 1133.74 832.43Z" fill="#551e02" opacity="1" stroke-width="4" stroke="none"></path><path d="M1196.37 873.63L1129.21 898.14C1129.14 898.14 1129.14 898.14 1129.14 898.07 1131.41 865.39 1137.11 851.03 1138.62 829.68 1140.26 806.19 1205.36 778.86 1196.37 873.63 1196.44 873.63 1196.44 873.63 1196.37 873.63Z" fill="#000000" opacity="0.2" stroke-width="4" stroke="none"></path><path d="M1126.39 873.7L1056.42 900.2C1056.35 900.2 1056.35 900.2 1056.35 900.13 1058.14 886.88 1059.37 881.45 1060.95 873.63 1068.57 864.77 1081.69 870.26 1084.09 861.61 1084.09 861.54 1084.16 861.54 1084.16 861.54L1126.32 873.56C1126.46 873.56 1126.46 873.7 1126.39 873.7Z" fill="#000000" opacity="0.2" stroke-width="4" stroke="none"></path><path d="M1063.36 983.5C1078.12 983.5 1090.69 994.28 1092.88 1008.84 1092.88 1008.84 1092.88 1008.9 1092.95 1008.9H1112.73C1112.73 1008.9 1112.8 1008.9 1112.8 1008.84 1114.1 1000.11 1119.25 992.35 1126.87 987.75H1126.94C1136.76 994.9 1147.75 998.47 1152.35 1008.9 1153.59 1011.86 1154.34 1014.95 1154.48 1018.11 1154.48 1018.17 1154.48 1018.17 1154.41 1018.17H1064.04C1064.04 1018.17 1063.97 1018.17 1063.97 1018.11 1061.71 1010.14 1058.96 997.51 1057.11 983.84 1057.11 983.77 1057.11 983.77 1057.17 983.77 1059.1 983.43 1061.3 983.5 1063.36 983.5Z" fill="#1f2321" opacity="1" stroke-width="4" stroke="none"></path><path d="M1137.59 983.5C1152.35 983.5 1164.92 994.28 1167.11 1008.84 1167.11 1008.84 1167.11 1008.9 1167.18 1008.9H1186.96C1186.96 1008.9 1187.03 1008.9 1187.03 1008.84 1188.33 1000.11 1193.48 992.35 1201.1 987.75H1201.17C1210.99 994.9 1221.91 998.47 1226.51 1008.9 1227.75 1011.86 1228.5 1014.95 1228.64 1018.11 1228.64 1018.17 1228.64 1018.17 1228.57 1018.17H1138.2C1138.2 1018.17 1138.14 1018.17 1138.14 1018.11 1135.87 1010.14 1133.33 997.78 1131.47 984.18 1131.47 984.11 1131.47 984.11 1131.54 984.11 1133.53 983.7 1135.53 983.5 1137.59 983.5Z" fill="#1f2321" opacity="1" stroke-width="4" stroke="none"></path><path d="M1107.65 497.05C1105.86 484.55 1102.91 469.92 1121.93 460.45 1133.26 454.82 1144.18 455.09 1151.25 457.91 1156.81 459.76 1161.62 461 1164.98 466.22 1170.55 474.73 1173.29 484.62 1173.5 485.65 1173.5 485.65 1173.5 485.72 1173.57 485.72 1174.12 485.79 1179.89 486.2 1180.57 488.53 1181.47 491.42 1177.69 494.99 1177.28 495.33V495.4C1179.68 502.2 1183.04 510.99 1180.98 517.3 1179.13 522.94 1173.71 528.98 1158.74 528.09 1158.67 528.09 1158.67 528.15 1158.67 528.15L1160.8 538.18C1160.8 538.25 1160.8 538.25 1160.73 538.25H1114.03C1114.03 538.25 1113.96 538.25 1113.96 538.18 1110.05 525.41 1108.68 504.05 1107.65 497.05Z" fill="#551e02" opacity="1" stroke-width="4" stroke="none"></path><path d="M1343.32 518.13C1351.08 513.87 1353.21 518.82 1349.7 525.2 1347.51 529.18 1345.72 532.82 1345.38 533.51 1345.38 533.58 1345.38 533.65 1345.45 533.58 1354.1 532.07 1388.5 524.58 1387.88 534.27 1387.88 534.33 1387.88 534.33 1387.95 534.33 1393.38 534.82 1395.23 540.24 1393.17 543.06V543.12C1398.94 546.9 1393.99 552.19 1393.58 552.6 1393.58 552.6 1393.58 552.6 1393.58 552.67 1393.65 553.15 1394.61 559.19 1385.82 563.31 1377.1 567.36 1356.85 572.51 1351.15 574.64 1342.22 577.87 1334.25 584.33 1321.21 595.66 1321.21 595.66 1321.14 595.66 1321.07 595.66L1294.91 551.23V551.16C1314.27 536.88 1331.78 524.45 1343.32 518.13Z" fill="#551e02" opacity="1" stroke-width="4" stroke="none"></path><path d="M1159.7 993.32L1189.84 971.75" stroke="#1f2321" stroke-width="4" stroke-linecap="round" stroke-linejoin="round" opacity="1" fill="none"></path><path d="M1170.96 501.92C1169.93 502.68 1165.88 503.57 1163.95 500.62" stroke="#000000" stroke-width="4" stroke-linecap="round" stroke-linejoin="round" opacity="1" fill="none"></path><path d="M1141.98 500.07L1136.28 497.18" stroke="#000000" stroke-width="4" stroke-linecap="round" stroke-linejoin="round" opacity="1" fill="none"></path><path d="M1164.37 484.21C1161.55 484.28 1161.55 488.4 1164.37 488.46 1167.18 488.4 1167.18 484.28 1164.37 484.21Z" fill="#231f20" opacity="1" stroke-width="4" stroke="none"></path><path d="M1393.58 552.74C1393.58 552.74 1361.17 558.37 1357.67 559.06" stroke="#000000" stroke-width="4" stroke-linecap="round" stroke-linejoin="round" opacity="1" fill="none"></path><path d="M1393.17 543.26L1354.85 548.82" stroke="#000000" stroke-width="4" stroke-linecap="round" stroke-linejoin="round" opacity="1" fill="none"></path><path d="M1387.95 534.4L1350.73 539.9" stroke="#000000" stroke-width="4" stroke-linecap="round" stroke-linejoin="round" opacity="1" fill="none"></path><path d="M1085.54 993.32L1115.89 971.62" stroke="#1f2321" stroke-width="4" stroke-linecap="round" stroke-linejoin="round" opacity="1" fill="none"></path><path d="M1326.7 563.24C1330.13 561.87 1338.58 556.03 1345.45 533.37" stroke="#000000" stroke-width="4" stroke-linecap="round" stroke-linejoin="round" opacity="1" fill="none"></path><path d="M1105.31 545.94C1109.98 545.12 1114.1 545.25 1116.23 545.12 1116.3 545.12 1116.3 545.05 1116.3 545.05 1115.75 543.33 1114.99 541 1114.17 538.32 1114.17 538.25 1114.17 538.25 1114.24 538.25H1160.93C1160.93 538.25 1161 538.25 1161 538.32L1161.48 540.45 1162.38 544.36C1162.38 544.36 1162.38 544.43 1162.44 544.43 1162.92 544.36 1166.98 544.09 1173.09 544.5 1173.16 544.5 1173.16 544.57 1173.16 544.57L1148.98 606.51C1148.98 606.57 1148.92 606.57 1148.85 606.51L1105.31 546.15C1105.24 546.01 1105.24 545.94 1105.31 545.94Z" fill="#ffffff" opacity="1" stroke-width="4" stroke="none"></path><path d="M1158.74 528.09C1155.51 527.88 1150.7 527.4 1145.35 525.48" stroke="#000000" stroke-width="4" stroke-linecap="round" stroke-linejoin="round" opacity="1" fill="none"></path><path d="M1070.57 837.58C1074.82 817.04 1075.03 794.52 1076.26 771.65 1078.26 735.19 1082.72 697.83 1109.64 665.9 1109.64 665.9 1109.64 665.9 1109.71 665.9 1110.53 665.77 1133.81 661.65 1154.48 661.99 1169.65 662.2 1183.8 666.73 1184.56 666.93 1184.56 666.93 1184.56 666.93 1184.62 667 1185.17 668.72 1209.89 741.92 1201.1 835.58 1200.01 846.91 1198.29 859.96 1196.5 873.63 1196.5 873.63 1196.5 873.7 1196.44 873.7L1061.09 873.7C1061.02 873.7 1061.02 873.63 1061.02 873.63 1064.45 858.52 1068.3 845.88 1070.57 837.58Z" fill="#61c9ff" opacity="1" stroke-width="4" stroke="none"></path><path d="M1158.67 528.02C1158.05 527.95 1150.91 527.06 1145.35 525.48 1145.28 525.48 1145.21 525.55 1145.28 525.61L1161.41 540.38 1160.93 538.25 1158.67 528.02C1158.74 528.02 1158.74 528.02 1158.67 528.02Z" fill="#000000" opacity="0.2" stroke-width="4" stroke="none"></path><path d="M1116.5 670.71L1116.71 670.5C1114.86 668.99 1113 667.48 1111.15 665.9 1116.37 665.97 1134.22 666.25 1135.8 666.25 1135.87 666.25 1135.87 666.32 1135.87 666.32L1128.25 679.71C1128.25 679.77 1128.18 679.77 1128.18 679.71 1122.89 675.45 1116.78 670.44 1116.78 670.44L1116.5 670.71Z" fill="#214f67" opacity="0.2" stroke-width="4" stroke="none"></path><path d="M1106.48 718.37L1076.47 771.38C1076.4 771.45 1076.33 771.38 1076.33 771.31 1077.98 741.03 1081.07 722.9 1087.18 705.53 1087.18 705.46 1087.25 705.46 1087.25 705.46 1087.66 705.66 1088.14 705.94 1088.49 706.14L1103.53 713.56C1103.66 713.77 1104.56 715.62 1106.41 718.23 1106.48 718.3 1106.48 718.37 1106.48 718.37Z" fill="#214f67" opacity="0.2" stroke-width="4" stroke="none"></path><path d="M1103.53 713.63L1088.56 706.28C1088.56 706.28 1088.49 706.21 1088.56 706.21L1098.38 684.24 1116.57 670.78 1116.85 670.57C1116.85 670.57 1122.96 675.59 1128.32 679.91 1130.79 681.9 1133.05 683.76 1134.5 684.86 1140.68 689.66 1171.58 715.07 1168.83 719.88 1166.29 724.34 1159.7 721.73 1158.67 721.32 1158.6 721.32 1158.53 721.32 1158.6 721.39 1160.66 728.32 1169.59 753.73 1159.97 753.53 1159.97 753.53 1159.9 753.53 1159.9 753.59 1157.91 762.11 1150.22 757.99 1149.67 757.71H1149.6C1143.7 762.93 1138.41 756.2 1138 755.65H1137.93C1128.52 759.57 1122.41 733.95 1122.2 732.99 1122.2 732.99 1122.2 732.99 1122.2 732.92 1114.72 728.8 1109.57 722.62 1106.62 718.44 1104.63 715.76 1103.66 713.83 1103.53 713.63Z" fill="#551e02" opacity="1" stroke-width="4" stroke="none"></path><path d="M1109.09 664.26L1110.6 665.49 1109.09 664.26 1096.52 628.82C1096.52 628.75 1096.45 628.75 1096.38 628.82 1095.56 630.54 1088.14 645.44 1087.66 646.33V646.4C1088.42 646.95 1098.17 655.12 1109.09 664.26ZM1072.42 565.44C1082.58 552.67 1095.63 547.73 1105.17 545.94H1105.24L1148.78 606.37C1148.78 606.44 1148.85 606.44 1148.92 606.37L1173.09 544.36 1173.16 544.29C1181.74 544.91 1194.03 547.04 1206.12 553.49 1224.11 563.11 1251.37 582.27 1252.47 583.09H1252.54C1253.5 582.33 1273.28 567.09 1294.84 551.23H1294.91L1321.07 595.66V595.72C1264.42 645.99 1258.24 649.9 1195.61 614.33 1195.54 614.33 1195.54 614.33 1195.54 614.4 1195.06 616.67 1185.79 660.82 1184.56 666.87 1184.49 667.28 1135.94 666.18 1135.94 666.18L1111.42 665.84C1111.35 665.84 1111.35 665.9 1111.35 665.97 1113.14 667.41 1114.93 668.93 1116.64 670.37V670.44L1088.56 706.28C1088.14 706.08 1087.66 705.66 1087.25 705.46L1087.18 705.39C1067.89 694.81 1038.09 675.17 1036.23 654.44 1033.48 623.67 1064.39 574.92 1072.42 565.44Z" fill="#76dddb" opacity="1" stroke-width="4" stroke="none"></path><path d="M1096.52 628.62L1105.86 608.91C1105.86 608.84 1105.93 608.84 1106 608.91L1135.87 666.18C1135.87 666.25 1135.87 666.25 1135.8 666.25L1111.15 665.9C1111.15 665.9 1111.15 665.9 1111.08 665.9 1110.39 665.35 1109.71 664.81 1109.09 664.26L1096.52 628.62Z" fill="#292929" opacity="0.2" stroke-width="4" stroke="none"></path><path d="M1184.56 667L1111.15 665.9" stroke="#292929" stroke-width="4" stroke-linecap="round" stroke-linejoin="round" opacity="1" fill="none"></path><path d="M1148.85 606.51V665.9" stroke="#292929" stroke-width="4" stroke-linecap="round" stroke-linejoin="round" opacity="1" fill="none"></path><path d="M1157.77 625.05H1139.71" stroke="#292929" stroke-width="4" stroke-linecap="round" stroke-linejoin="round" opacity="1" fill="none"></path><path d="M1157.77 638.64H1139.71" stroke="#292929" stroke-width="4" stroke-linecap="round" stroke-linejoin="round" opacity="1" fill="none"></path><path d="M1096.45 628.75L1106 608.91" stroke="#404040" stroke-width="4" stroke-linecap="round" stroke-linejoin="round" opacity="1" fill="none"></path><path d="M1137.86 755.52C1137.17 752.08 1135.8 741.78 1132.37 732.17" stroke="#000000" stroke-width="4" stroke-linecap="round" stroke-linejoin="round" opacity="1" fill="none"></path><path d="M1149.53 757.58C1149.53 757.58 1146.79 740.41 1141.98 728.74" stroke="#000000" stroke-width="4" stroke-linecap="round" stroke-linejoin="round" opacity="1" fill="none"></path><path d="M1159.83 753.53C1155.03 734.3 1151.59 724.62 1151.59 724.62" stroke="#000000" stroke-width="4" stroke-linecap="round" stroke-linejoin="round" opacity="1" fill="none"></path><path d="M1158.6 721.25C1157.64 718.57 1156.47 715.55 1154.82 713.22" stroke="#000000" stroke-width="4" stroke-linecap="round" stroke-linejoin="round" opacity="1" fill="none"></path><path d="M1198.08 856.32L1066.17 856.32" stroke="#214f67" stroke-width="4" stroke-linecap="round" stroke-linejoin="round" opacity="1" fill="none"></path><path d="M1252.61 583.16L1242.72 576.43" stroke="#404040" stroke-width="4" stroke-linecap="round" stroke-linejoin="round" opacity="1" fill="none"></path><path d="M1239.42 635.41C1239.49 635.48 1239.42 635.55 1239.35 635.55 1228.92 633.01 1193.96 613.58 1195.61 614.4 1195.61 614.4 1198.84 596.48 1199.18 594.76 1199.18 594.69 1199.25 594.69 1199.32 594.76 1220.26 619.14 1237.29 633.63 1239.42 635.41Z" fill="#292929" opacity="0.2" stroke-width="4" stroke="none"></path><path d="M1195.54 614.47L1199.25 594.76" stroke="#404040" stroke-width="4" stroke-linecap="round" stroke-linejoin="round" opacity="1" fill="none"></path><path d="M1055.46 539.55C1052.78 508.03 1077.36 493.61 1102.63 499.66 1102.7 499.66 1102.7 499.66 1102.7 499.59 1102.5 498.56 1102.29 497.6 1102.15 496.91 1100.37 484.41 1100.99 466.01 1120.01 456.53 1131.34 450.9 1144.59 451.66 1151.66 454.47 1157.16 456.33 1161.55 461 1164.98 466.15V466.22C1163.54 470.4 1159.9 477.13 1155.1 483.25 1155.1 483.25 1155.03 483.31 1155.03 483.25L1143.7 475.28C1143.63 475.21 1143.56 475.28 1143.63 475.35L1151.66 487.37V487.43C1150.56 488.67 1149.53 489.7 1148.3 490.8H1148.23C1137.24 481.25 1128.18 484.34 1124.95 488.81 1116.02 501.17 1135.18 510.71 1139.37 512.84 1139.37 512.84 1139.37 512.84 1139.37 512.91 1140.26 524.24 1138.62 533.17 1134.63 539.42 1131.47 544.43 1125.84 547.38 1119.87 547.31 1111.49 547.18 1095.9 547.66 1088.63 551.98 1072.97 559.81 1055.94 590.64 1048.18 607.26 1048.18 607.26 1048.11 607.33 1048.11 607.26 1021.88 595.11 1017.76 549.24 1055.46 539.62 1055.46 539.62 1055.46 539.62 1055.46 539.55Z" fill="#231f20" opacity="1" stroke-width="4" stroke="none"></path><path d="M1141.91 508.58L1145.35 517.72C1145.96 519.36 1145.14 521.15 1143.49 521.77 1142.74 522.39 1134.29 520.94 1133.26 520.94 1130.99 520.74 1129.76 517.99 1130.99 516.07L1136.42 507.97C1137.72 505.91 1141.09 506.25 1141.91 508.58Z" fill="#ffffff" opacity="1" stroke-width="4" stroke="none"></path></g></svg>